<?xml version="1.0" standalone="no"?>
<!DOCTYPE svg PUBLIC "-//W3C//DTD SVG 20010904//EN"
 "http://www.w3.org/TR/2001/REC-SVG-20010904/DTD/svg10.dtd">
<svg version="1.0" xmlns="http://www.w3.org/2000/svg"
 width="1920.000000pt" height="1080.000000pt" viewBox="0 0 1920.000000 1080.000000"
 preserveAspectRatio="xMidYMid meet">

<g transform="translate(0.000000,1080.000000) scale(0.100000,-0.100000)"
fill="#000000" stroke="none">
<path d="M0 9935 l0 -865 80 0 c64 0 80 -3 80 -15 0 -11 11 -15 40 -15 29 0
40 4 40 15 0 12 16 15 80 15 64 0 80 -3 80 -15 0 -11 11 -15 40 -15 28 0 40 4
40 14 0 12 44 15 263 18 414 5 617 -1 617 -18 0 -10 12 -14 40 -14 33 0 40 3
40 20 0 25 15 25 40 0 25 -25 120 -29 120 -5 0 12 16 15 80 15 64 0 80 -3 80
-15 0 -11 11 -15 43 -15 37 0 46 4 55 25 15 32 28 32 46 -2 11 -20 15 -23 16
-10 0 16 16 17 200 17 171 0 200 -2 200 -15 0 -11 11 -15 40 -15 29 0 40 4 40
15 0 13 33 15 240 15 207 0 240 -2 240 -15 0 -11 11 -15 40 -15 29 0 40 4 40
15 0 11 11 15 40 15 29 0 40 -4 40 -15 0 -11 11 -15 40 -15 29 0 40 4 40 15 0
13 20 15 120 15 100 0 120 -2 120 -15 0 -11 11 -15 40 -15 29 0 40 4 40 15 0
11 11 15 39 15 22 0 41 5 44 13 2 7 10 0 17 -15 7 -16 16 -28 20 -28 4 0 13
12 20 28 7 15 15 22 17 15 4 -10 70 -13 284 -13 241 0 279 -2 279 -15 0 -11
11 -15 40 -15 38 0 40 1 40 32 0 25 3 29 12 20 7 -7 21 -12 33 -13 11 0 14 -3
7 -6 -10 -4 -10 -8 -1 -19 15 -18 29 -18 29 1 0 11 11 15 40 15 29 0 40 -4 40
-15 0 -11 11 -15 40 -15 29 0 40 4 40 15 0 12 16 15 80 15 64 0 80 -3 80 -15
0 -11 11 -15 40 -15 29 0 40 4 40 15 0 13 20 15 120 15 l120 0 0 -25 c0 -16 6
-25 15 -25 8 0 15 5 15 10 0 6 11 10 25 10 15 0 25 6 25 14 0 18 103 22 413
17 186 -2 227 -6 227 -17 0 -10 12 -14 40 -14 29 0 40 4 40 15 0 12 16 15 80
15 64 0 80 -3 80 -15 0 -21 16 -19 41 6 11 11 27 18 36 15 8 -3 30 -6 49 -6
24 0 34 -5 34 -15 0 -11 12 -15 47 -15 39 0 52 5 80 32 25 24 33 28 33 15 0
-13 9 -17 40 -17 31 0 40 -4 40 -17 1 -13 5 -10 16 10 8 15 19 27 24 27 5 0
16 -12 24 -27 11 -20 15 -23 16 -10 0 15 13 17 120 17 100 0 120 -2 120 -15 0
-11 11 -15 40 -15 29 0 40 4 40 15 0 12 16 15 80 15 64 0 80 -3 80 -15 0 -11
11 -15 40 -15 27 0 40 4 40 14 0 9 20 15 61 20 93 9 99 8 99 -14 0 -17 7 -20
40 -20 27 0 40 4 40 14 0 9 19 15 60 19 82 9 180 -2 180 -19 0 -10 13 -14 40
-14 29 0 40 4 40 15 0 11 11 15 40 15 29 0 40 -4 40 -15 0 -19 14 -19 29 -1 9
11 9 15 -1 19 -7 3 -4 6 8 6 11 1 25 6 32 13 9 9 12 5 12 -20 0 -31 2 -32 40
-32 29 0 40 4 40 15 0 12 13 15 59 15 32 0 86 3 120 6 58 7 61 6 61 -15 0 -18
6 -21 40 -21 28 0 40 4 40 14 0 11 34 15 180 18 313 6 540 -2 540 -18 0 -10
12 -14 40 -14 27 0 40 4 40 14 0 16 187 24 420 18 111 -3 140 -7 140 -18 0
-10 13 -14 40 -14 29 0 40 4 40 15 0 13 27 15 179 15 236 0 301 7 301 31 0 11
7 19 15 19 11 0 15 -11 15 -40 0 -36 3 -40 25 -40 19 0 25 5 25 21 0 21 3 22
61 15 34 -3 88 -6 120 -6 56 0 59 -1 59 -25 0 -22 4 -25 40 -25 36 0 40 3 40
25 l0 25 280 0 c242 0 280 -2 280 -15 0 -12 20 -15 120 -15 96 0 120 3 120 14
0 11 36 14 200 14 164 0 200 -3 200 -14 0 -20 173 -20 189 0 9 11 9 15 -1 19
-7 3 -4 6 8 6 11 1 25 6 32 13 9 9 12 5 12 -20 0 -31 2 -32 40 -32 29 0 40 4
40 15 0 11 11 15 40 15 29 0 40 -4 40 -15 0 -11 11 -15 40 -15 29 0 40 4 40
15 0 16 -25 15 715 18 88 1 306 0 484 -1 302 -2 323 -3 319 -19 -4 -16 1 -18
39 -14 28 2 43 8 43 17 0 12 41 14 240 14 222 0 240 -1 240 -17 1 -13 5 -10
16 10 8 15 19 27 24 27 5 0 16 -12 24 -27 11 -20 15 -23 16 -10 0 15 13 17
120 17 100 0 120 -2 120 -15 0 -11 11 -15 40 -15 32 0 40 4 40 19 0 17 9 18
123 16 67 -1 211 -3 320 -4 168 -1 197 -3 197 -16 0 -11 11 -15 40 -15 34 0
40 3 40 21 0 21 3 22 61 15 34 -3 106 -6 160 -6 81 0 99 -3 99 -15 0 -9 9 -15
25 -15 14 0 25 6 25 14 0 9 23 15 83 19 126 10 134 9 140 -13 3 -11 12 -20 21
-20 19 0 22 26 4 33 -9 4 -9 6 -1 6 6 1 9 10 6 21 -8 30 3 25 43 -20 40 -44
54 -50 54 -22 0 16 13 17 163 16 89 -1 287 -2 440 -3 239 -1 277 -3 277 -16 0
-12 16 -15 80 -15 64 0 80 3 80 15 0 17 -13 16 278 18 186 2 202 1 202 -15 0
-14 9 -18 40 -18 22 0 40 -4 40 -10 0 -5 18 -10 40 -10 22 0 40 5 40 10 0 6
-18 10 -40 10 -29 0 -40 4 -40 15 0 17 1 17 198 20 113 2 122 1 122 -16 0 -17
9 -19 80 -19 64 0 80 3 80 15 0 11 11 15 40 15 31 0 40 -4 40 -17 0 -15 2 -16
9 -3 6 8 8 17 5 21 -7 12 27 19 44 10 10 -5 16 -12 15 -15 -9 -19 2 -26 42
-26 33 0 45 4 45 15 0 12 16 15 80 15 64 0 80 -3 80 -15 0 -11 11 -15 40 -15
27 0 40 4 40 14 0 20 110 28 267 20 102 -5 133 -10 133 -20 0 -21 11 -17 47
18 25 24 33 28 33 15 0 -15 11 -17 80 -17 l80 0 0 865 0 865 -9600 0 -9600 0
0 -865z m345 -805 c3 -5 -1 -10 -9 -10 -9 0 -16 5 -16 10 0 6 4 10 9 10 6 0
13 -4 16 -10z m665 0 c0 -5 -4 -10 -10 -10 -5 0 -10 5 -10 10 0 6 5 10 10 10
6 0 10 -4 10 -10z m285 0 c3 -5 1 -10 -4 -10 -6 0 -11 5 -11 10 0 6 2 10 4 10
3 0 8 -4 11 -10z m1345 0 c0 -5 -7 -10 -16 -10 -8 0 -12 5 -9 10 3 6 10 10 16
10 5 0 9 -4 9 -10z m505 0 c3 -5 -1 -10 -9 -10 -9 0 -16 5 -16 10 0 6 4 10 9
10 6 0 13 -4 16 -10z m70 0 c3 -5 1 -10 -4 -10 -6 0 -11 5 -11 10 0 6 2 10 4
10 3 0 8 -4 11 -10z m1850 0 c3 -5 -1 -10 -9 -10 -9 0 -16 5 -16 10 0 6 4 10
9 10 6 0 13 -4 16 -10z m455 0 c0 -5 -18 -10 -40 -10 -22 0 -40 5 -40 10 0 6
18 10 40 10 22 0 40 -4 40 -10z m880 0 c0 -5 -5 -10 -11 -10 -5 0 -7 5 -4 10
3 6 8 10 11 10 2 0 4 -4 4 -10z m50 0 c0 -5 -4 -10 -10 -10 -5 0 -10 5 -10 10
0 6 5 10 10 10 6 0 10 -4 10 -10z m3040 0 c0 -5 -4 -10 -10 -10 -5 0 -10 5
-10 10 0 6 5 10 10 10 6 0 10 -4 10 -10z m110 0 c0 -5 -7 -10 -16 -10 -8 0
-12 5 -9 10 3 6 10 10 16 10 5 0 9 -4 9 -10z m295 0 c3 -5 -3 -10 -15 -10 -12
0 -18 5 -15 10 3 6 10 10 15 10 5 0 12 -4 15 -10z m840 0 c3 -5 1 -10 -4 -10
-6 0 -11 5 -11 10 0 6 2 10 4 10 3 0 8 -4 11 -10z m305 0 c0 -5 -4 -10 -10
-10 -5 0 -10 5 -10 10 0 6 5 10 10 10 6 0 10 -4 10 -10z m160 0 c0 -5 -7 -10
-16 -10 -8 0 -12 5 -9 10 3 6 10 10 16 10 5 0 9 -4 9 -10z m80 0 c0 -5 -4 -10
-10 -10 -5 0 -10 5 -10 10 0 6 5 10 10 10 6 0 10 -4 10 -10z m320 0 c0 -5 -7
-10 -16 -10 -8 0 -12 5 -9 10 3 6 10 10 16 10 5 0 9 -4 9 -10z m130 0 c0 -5
-4 -10 -10 -10 -5 0 -10 5 -10 10 0 6 5 10 10 10 6 0 10 -4 10 -10z m110 0 c0
-5 -5 -10 -11 -10 -5 0 -7 5 -4 10 3 6 8 10 11 10 2 0 4 -4 4 -10z m50 0 c0
-5 -4 -10 -10 -10 -5 0 -10 5 -10 10 0 6 5 10 10 10 6 0 10 -4 10 -10z m50 0
c0 -5 -4 -10 -10 -10 -5 0 -10 5 -10 10 0 6 5 10 10 10 6 0 10 -4 10 -10z
m940 0 c0 -5 -7 -10 -16 -10 -8 0 -12 5 -9 10 3 6 10 10 16 10 5 0 9 -4 9 -10z
m400 0 c0 -5 -18 -10 -40 -10 -22 0 -40 5 -40 10 0 6 18 10 40 10 22 0 40 -4
40 -10z m260 0 c0 -5 -4 -10 -10 -10 -5 0 -10 5 -10 10 0 6 5 10 10 10 6 0 10
-4 10 -10z m315 0 c3 -5 1 -10 -4 -10 -6 0 -11 5 -11 10 0 6 2 10 4 10 3 0 8
-4 11 -10z m835 -6 c0 -2 -11 -4 -25 -4 -14 0 -25 4 -25 9 0 4 11 6 25 3 14
-2 25 -6 25 -8z m160 6 c0 -5 -4 -10 -10 -10 -5 0 -10 5 -10 10 0 6 5 10 10
10 6 0 10 -4 10 -10z m400 0 c0 -5 -4 -10 -10 -10 -5 0 -10 5 -10 10 0 6 5 10
10 10 6 0 10 -4 10 -10z m80 0 c0 -5 -4 -10 -10 -10 -5 0 -10 5 -10 10 0 6 5
10 10 10 6 0 10 -4 10 -10z m110 0 c0 -5 -4 -10 -10 -10 -5 0 -10 5 -10 10 0
6 5 10 10 10 6 0 10 -4 10 -10z m745 0 c3 -5 -1 -10 -9 -10 -9 0 -16 5 -16 10
0 6 4 10 9 10 6 0 13 -4 16 -10z m390 0 c3 -5 1 -10 -4 -10 -6 0 -11 5 -11 10
0 6 2 10 4 10 3 0 8 -4 11 -10z m160 0 c3 -5 1 -10 -4 -10 -6 0 -11 5 -11 10
0 6 2 10 4 10 3 0 8 -4 11 -10z m465 0 c0 -5 -4 -10 -10 -10 -5 0 -10 5 -10
10 0 6 5 10 10 10 6 0 10 -4 10 -10z m105 0 c3 -5 -1 -10 -9 -10 -9 0 -16 5
-16 10 0 6 4 10 9 10 6 0 13 -4 16 -10z m150 0 c3 -5 1 -10 -4 -10 -6 0 -11 5
-11 10 0 6 2 10 4 10 3 0 8 -4 11 -10z m385 0 c0 -5 -4 -10 -10 -10 -5 0 -10
5 -10 10 0 6 5 10 10 10 6 0 10 -4 10 -10z m745 0 c3 -5 -1 -10 -9 -10 -9 0
-16 5 -16 10 0 6 4 10 9 10 6 0 13 -4 16 -10z m265 0 c0 -5 -4 -10 -10 -10 -5
0 -10 5 -10 10 0 6 5 10 10 10 6 0 10 -4 10 -10z m-17747 -7 c-13 -2 -33 -2
-45 0 -13 2 -3 4 22 4 25 0 35 -2 23 -4z m1760 0 c-13 -2 -33 -2 -45 0 -13 2
-3 4 22 4 25 0 35 -2 23 -4z m4684 1 c-3 -3 -12 -4 -19 -1 -8 3 -5 6 6 6 11 1
17 -2 13 -5z m8061 0 c25 -7 31 -34 7 -34 -8 0 -15 6 -15 14 0 10 -14 16 -42
19 -39 3 -40 4 -8 5 19 1 45 -1 58 -4z m-4168 -34 c0 -5 -18 -10 -40 -10 -22
0 -40 5 -40 10 0 6 18 10 40 10 22 0 40 -4 40 -10z"/>
<path d="M9920 9055 c0 -8 6 -15 14 -15 8 0 16 7 20 15 4 10 -1 15 -14 15 -11
0 -20 -7 -20 -15z"/>
<path d="M16046 9055 c4 -8 12 -15 20 -15 8 0 14 -4 14 -10 0 -5 18 -10 40
-10 22 0 40 5 40 10 0 6 -18 10 -40 10 -29 0 -40 4 -40 15 0 8 -9 15 -20 15
-13 0 -18 -5 -14 -15z"/>
<path d="M17840 9055 c0 -8 6 -15 14 -15 8 0 16 7 20 15 4 10 -1 15 -14 15
-11 0 -20 -7 -20 -15z"/>
<path d="M575 9030 c3 -5 15 -10 25 -10 10 0 22 5 25 10 4 6 -7 10 -25 10 -18
0 -29 -4 -25 -10z"/>
<path d="M1066 9025 c-4 -10 1 -15 14 -15 13 0 18 5 14 15 -4 8 -10 15 -14 15
-4 0 -10 -7 -14 -15z"/>
<path d="M8480 9030 c0 -5 18 -10 40 -10 22 0 40 5 40 10 0 6 -18 10 -40 10
-22 0 -40 -4 -40 -10z"/>
<path d="M11440 9030 c0 -5 18 -10 40 -10 22 0 40 5 40 10 0 6 -18 10 -40 10
-22 0 -40 -4 -40 -10z"/>
<path d="M9575 7649 c-16 -6 -16 -8 -3 -8 9 -1 23 -4 32 -7 9 -3 16 -2 16 4 0
15 -22 20 -45 11z"/>
<path d="M9515 7621 c-4 -7 1 -8 12 -4 10 3 15 3 11 -2 -4 -4 -18 -9 -30 -10
-37 -4 -38 -4 -38 -19 0 -20 31 -25 57 -8 23 15 73 9 73 -8 0 -13 -37 -22 -60
-15 -12 4 -27 2 -35 -5 -10 -8 -18 -6 -34 12 l-21 22 -55 -28 c-30 -15 -55
-34 -55 -41 0 -9 -6 -12 -16 -8 -11 4 -22 -1 -30 -12 -8 -10 -14 -15 -14 -11
0 4 -13 -1 -30 -11 -16 -9 -30 -21 -30 -25 0 -4 -4 -8 -9 -8 -18 0 -120 -64
-115 -72 3 -4 -5 -8 -17 -8 -31 0 -199 -62 -193 -72 3 -4 -1 -5 -9 -2 -16 6
-89 -29 -108 -52 -6 -8 -21 -14 -34 -14 -30 0 -85 -20 -85 -31 0 -5 -7 -9 -16
-9 -25 0 -85 -40 -78 -52 4 -7 2 -8 -4 -4 -6 4 -22 1 -34 -5 -13 -7 -41 -14
-63 -15 -39 -2 -132 -41 -210 -89 -60 -36 -356 -185 -369 -185 -6 0 -23 -6
-38 -14 -14 -8 -43 -19 -65 -26 -21 -7 -45 -18 -53 -25 -15 -12 -143 -55 -165
-55 -7 0 -39 -18 -71 -40 -33 -22 -77 -45 -99 -51 -53 -14 -90 -30 -217 -95
-118 -60 -177 -72 -235 -47 -19 7 -53 16 -76 19 -25 4 -53 16 -68 31 -22 20
-35 24 -75 22 -35 -2 -49 1 -52 11 -11 42 -14 45 -23 23 -11 -30 -59 -32 -59
-3 0 11 -4 20 -10 20 -5 0 -10 -9 -10 -20 0 -13 -10 -24 -25 -30 -14 -5 -25
-12 -25 -16 0 -3 11 -4 25 -2 17 4 25 1 25 -9 0 -8 -4 -12 -9 -8 -5 3 -27 -2
-48 -10 -37 -15 -44 -23 -77 -92 -11 -25 -21 -33 -41 -33 -24 0 -64 -32 -65
-53 0 -4 -10 -21 -22 -37 -18 -25 -29 -30 -66 -30 -24 0 -51 -4 -61 -10 -16
-8 -19 -4 -25 29 -5 35 -9 39 -35 37 -21 0 -27 -5 -23 -16 5 -13 3 -13 -11 -1
-9 7 -14 17 -11 22 3 5 -2 6 -10 3 -11 -4 -17 3 -22 23 -4 15 -20 45 -36 65
-25 32 -33 36 -61 31 -30 -4 -36 -1 -62 39 -16 23 -28 47 -27 51 1 5 -2 6 -7
3 -5 -3 -14 1 -21 9 -7 8 -22 15 -34 15 -28 0 -101 74 -101 103 0 16 -7 23
-29 27 -36 6 -46 29 -16 37 21 6 19 8 -21 29 -54 28 -58 28 -131 7 -55 -16
-76 -33 -43 -33 8 0 15 -7 15 -15 0 -8 -8 -15 -19 -15 -10 0 -41 -23 -69 -51
-45 -45 -57 -51 -106 -58 -36 -5 -65 -16 -79 -29 -13 -12 -27 -22 -32 -22 -5
0 -41 -16 -81 -36 l-72 -37 -35 27 c-32 25 -50 52 -52 80 -1 23 -25 15 -31
-11 -13 -52 -64 -70 -86 -30 -6 12 -14 45 -16 72 -2 28 -8 54 -13 59 -6 6 -9
6 -10 0 -4 -67 -33 -149 -49 -139 -6 3 -10 14 -11 23 -1 30 -18 -19 -18 -55
-1 -25 -6 -32 -23 -35 -30 -5 -88 21 -110 48 -10 12 -43 33 -75 48 -32 15 -79
38 -106 52 -58 30 -68 30 -115 1 -20 -13 -57 -31 -81 -41 -24 -9 -55 -25 -68
-36 -13 -10 -32 -16 -42 -13 -11 3 -41 -5 -68 -17 -63 -29 -80 -31 -93 -15 -8
9 -6 14 5 19 13 5 11 12 -14 44 -25 31 -51 107 -51 150 0 21 -21 -22 -34 -68
-19 -75 -30 -101 -54 -127 -21 -25 -82 -43 -82 -24 0 6 5 11 10 11 14 0 13 18
-2 35 -11 11 -17 10 -37 -8 -15 -14 -25 -18 -28 -11 -2 7 -14 10 -26 8 -20 -4
-20 -4 2 8 35 18 95 82 81 86 -6 2 -18 -5 -26 -17 -17 -24 -39 -28 -30 -6 7
20 4 19 -38 -6 -24 -14 -36 -17 -36 -9 0 9 -3 10 -14 1 -10 -8 -19 -6 -39 9
-27 21 -42 26 -33 11 4 -5 0 -12 -6 -14 -9 -4 -5 -12 12 -27 l25 -21 -25 7
c-22 6 -23 5 -11 -10 7 -9 20 -16 28 -16 8 0 11 -5 8 -10 -4 -7 -12 -7 -18 -2
-7 5 -31 14 -54 21 -24 6 -43 16 -43 20 0 5 -16 12 -35 15 -19 4 -37 12 -41
18 -4 6 -3 8 4 5 12 -8 42 2 42 14 0 5 -7 9 -15 9 -8 0 -15 6 -15 14 0 7 -7
19 -15 26 -19 16 -19 31 0 24 8 -4 15 -1 15 5 0 6 -5 11 -10 11 -6 0 -16 12
-22 28 -11 26 -12 26 -16 4 -2 -12 -14 -30 -28 -38 -25 -17 -23 -40 3 -30 8 4
1 -10 -17 -30 -38 -44 -28 -67 17 -40 l28 17 -24 -20 c-27 -24 -44 -26 -91 -9
-29 10 -35 9 -47 -8 -8 -10 -17 -30 -20 -44 -9 -39 -53 -81 -76 -74 -16 5 -19
3 -14 -10 4 -11 3 -15 -4 -11 -6 4 -8 13 -5 21 3 8 1 14 -5 14 -6 0 -9 6 -6
14 6 14 -31 15 -55 0 -7 -4 -4 3 6 15 27 30 30 54 5 46 -16 -5 -19 -1 -20 27
-2 30 -2 31 -6 6 -3 -17 -11 -28 -20 -28 -10 0 -13 -6 -9 -16 5 -14 4 -15 -9
-4 -19 16 -19 1 0 -27 9 -12 11 -24 6 -27 -5 -4 -11 0 -14 6 -7 23 -39 -13
-34 -39 2 -12 -1 -24 -7 -27 -6 -3 2 -16 19 -30 17 -14 25 -26 18 -26 -6 0
-15 5 -18 10 -9 15 -25 12 -25 -5 0 -8 -7 -15 -15 -15 -8 0 -15 -7 -15 -15 0
-17 34 -37 45 -27 5 4 5 1 1 -5 -10 -18 -31 -16 -52 4 -16 16 -16 16 -10 -3 6
-19 3 -20 -46 -13 -29 4 -78 8 -109 8 -41 1 -60 6 -72 19 -10 10 -14 22 -11
25 4 4 -14 15 -40 26 -25 11 -46 25 -46 30 0 5 -9 12 -19 16 -10 3 -25 20 -32
38 -7 18 -20 40 -30 49 -9 9 -19 22 -21 28 -2 7 -39 16 -83 21 -110 12 -177
40 -194 82 l-12 32 -11 -25 c-10 -22 -12 -23 -16 -6 -3 15 -6 16 -13 5 -6 -10
-9 -7 -9 11 -1 32 -28 65 -60 73 -101 23 -143 37 -175 55 -20 12 -42 22 -49
22 -7 0 -26 6 -42 14 -21 11 -41 12 -73 6 -24 -4 -57 -4 -73 1 -20 5 -48 3
-82 -5 -29 -8 -64 -12 -78 -9 -19 4 -40 -4 -72 -26 -24 -17 -47 -31 -50 -31
-3 0 -29 -15 -58 -34 -92 -58 -211 -116 -240 -116 -27 0 -75 -24 -89 -43 -3
-5 -24 -13 -47 -18 -33 -7 -49 -5 -84 11 -66 30 -150 26 -216 -9 -30 -16 -68
-42 -86 -58 -20 -18 -48 -32 -74 -37 -24 -3 -89 -28 -145 -55 -56 -27 -126
-54 -154 -61 l-53 -12 0 -3149 0 -3149 9600 0 9600 0 0 3404 0 3405 -30 21
c-26 18 -47 22 -129 25 -53 1 -107 7 -118 14 -29 15 -76 15 -67 -1 4 -6 3 -8
-3 -5 -5 3 -31 -5 -58 -18 -27 -14 -54 -25 -60 -25 -7 0 -30 -7 -51 -17 -22
-9 -46 -17 -54 -18 -8 -1 -26 -5 -39 -9 -13 -5 -42 -3 -67 4 -42 12 -48 11
-116 -20 -71 -33 -74 -33 -201 -31 -72 1 -137 6 -146 11 -12 6 -40 -3 -96 -30
-131 -62 -225 -88 -339 -93 -49 -2 -82 -9 -84 -15 -2 -7 -10 -12 -18 -12 -8 0
-14 -4 -14 -9 0 -5 -10 -9 -22 -10 -156 -4 -170 -3 -192 18 -12 12 -30 21 -39
21 -26 0 -107 -23 -107 -31 0 -4 -12 -10 -27 -14 -16 -3 -52 -17 -80 -31 -184
-85 -226 -99 -252 -85 -11 6 -29 11 -40 11 -11 0 -44 11 -73 24 -122 56 -159
66 -228 59 -100 -10 -125 -7 -176 22 l-48 27 -51 -25 c-92 -45 -120 -56 -162
-66 -39 -8 -61 1 -30 12 16 6 -37 27 -66 26 -21 0 -21 -1 3 -10 20 -8 22 -12
10 -19 -8 -5 -10 -10 -4 -10 6 0 11 -7 11 -15 0 -9 -6 -14 -14 -11 -8 3 -12 2
-9 -3 11 -17 -31 -37 -69 -32 -5 1 4 12 20 26 l30 25 -38 -6 c-31 -5 -36 -4
-31 9 9 24 -5 41 -22 26 -11 -9 -14 -8 -14 4 0 8 7 20 15 27 17 14 21 45 5 35
-5 -3 -10 0 -10 8 0 8 -8 17 -18 19 -15 4 -18 1 -14 -17 2 -13 -1 -26 -8 -30
-8 -5 -8 -10 0 -20 9 -11 7 -12 -8 -8 -26 6 -36 -11 -21 -39 12 -22 12 -22
-14 -5 -24 16 -26 16 -20 0 4 -10 2 -14 -4 -10 -5 3 -16 -5 -23 -18 -14 -26
-25 -31 -35 -15 -3 5 -18 7 -34 4 -26 -6 -29 -2 -68 83 -56 124 -58 130 -33
143 11 6 20 17 20 25 0 8 7 15 15 15 18 0 40 39 28 50 -4 5 -34 10 -65 12 -32
2 -58 6 -58 11 0 4 -18 7 -39 7 -32 0 -47 -7 -83 -41 -23 -22 -59 -53 -78 -67
-19 -15 -46 -39 -60 -53 -14 -14 -43 -32 -65 -39 -70 -22 -149 -64 -169 -88
-19 -24 -22 -24 -130 -19 -69 3 -126 11 -150 21 -47 20 -111 22 -99 4 4 -7 8
-20 10 -28 4 -29 28 -62 55 -76 19 -10 28 -22 28 -39 0 -32 -8 -35 -87 -39
-39 -2 -69 -8 -71 -15 -2 -7 -31 -11 -77 -11 -85 0 -105 6 -105 29 0 10 -11
28 -25 41 -23 22 -34 50 -18 50 3 0 21 -12 40 -26 42 -32 103 -44 103 -20 0 9
-4 16 -10 16 -5 0 -10 4 -10 10 0 10 -19 36 -55 74 -11 11 -44 51 -74 89 -30
37 -58 67 -62 67 -4 0 -18 17 -30 38 -13 20 -28 42 -34 48 -15 15 -44 24 -49
15 -12 -18 -96 6 -138 41 -65 53 -79 56 -24 6 l49 -44 -23 -22 c-13 -12 -27
-22 -32 -22 -4 0 -8 -13 -8 -30 0 -19 7 -33 20 -40 16 -9 20 -20 18 -51 -2
-39 -2 -39 -37 -33 -39 8 -121 54 -121 68 0 6 -12 27 -27 48 -37 54 -52 120
-39 169 15 56 2 64 -68 44 -31 -9 -56 -19 -56 -23 0 -4 -21 -8 -46 -9 -25 -1
-52 -7 -60 -14 -8 -6 -14 -8 -14 -4 0 4 -7 2 -15 -5 -14 -11 -14 -15 -1 -29
21 -24 82 -116 90 -136 4 -12 -1 -23 -16 -34 -13 -9 -25 -16 -28 -16 -3 -1
-28 -13 -57 -28 -29 -15 -60 -27 -70 -27 -18 0 -53 50 -53 75 0 8 -6 18 -14
22 -18 11 -40 53 -26 53 5 0 10 7 10 15 0 21 7 19 42 -10 29 -25 48 -25 48 -2
0 7 -9 19 -20 27 -11 8 -20 19 -20 24 0 9 -62 90 -84 111 -6 6 -29 33 -51 60
-21 28 -42 52 -45 55 -3 3 -11 16 -18 30 -23 44 -62 86 -70 75 -4 -5 -14 -11
-22 -12 -46 -6 -110 -26 -110 -33 0 -5 -7 -6 -17 -3 -11 4 -14 3 -9 -6 6 -8 2
-11 -10 -9 -11 2 -18 -1 -17 -7 1 -5 -9 -11 -21 -11 -13 -1 -43 -14 -67 -30
-59 -38 -130 -74 -145 -74 -26 0 -21 -17 17 -60 108 -123 156 -176 182 -202
15 -16 25 -33 22 -38 -9 -15 -25 -12 -25 4 0 8 -17 20 -37 26 -21 6 -45 14
-53 17 -8 4 -21 5 -27 4 -7 -1 -13 4 -13 12 0 19 -38 51 -90 76 -25 11 -53 26
-63 33 -14 10 -19 10 -25 1 -10 -16 -72 5 -72 23 0 15 -28 26 -43 17 -7 -3 -3
4 8 18 11 13 13 19 5 12 -8 -6 -55 -32 -105 -59 -49 -26 -101 -55 -115 -64
-14 -10 -45 -28 -70 -40 -44 -22 -44 -23 -20 -32 13 -5 38 -8 55 -7 16 1 61 1
98 0 l69 -1 -6 -27 c-4 -16 -8 -38 -10 -50 -4 -20 -33 -72 -47 -83 -3 -3 -18
-23 -32 -45 -15 -22 -27 -34 -27 -28 0 29 -30 42 -85 36 -38 -4 -55 -2 -55 6
0 6 -10 11 -22 11 -13 1 -40 7 -60 14 -26 9 -40 10 -47 3 -8 -8 -11 -7 -11 1
0 7 -10 12 -21 12 -12 0 -27 7 -33 16 -14 18 -50 8 -42 -12 7 -19 -4 -18 -33
3 -22 15 -25 15 -37 -1 -11 -16 -13 -16 -19 3 -3 12 -10 21 -15 21 -6 0 -6
-10 0 -24 8 -23 8 -24 -28 -13 -20 6 -44 17 -53 24 -23 19 -29 16 -29 -17 0
-30 -22 -42 -36 -19 -3 6 -17 8 -31 4 -16 -4 -22 -2 -18 5 11 17 -14 11 -34
-9 -11 -11 -21 -16 -23 -12 -2 5 -13 11 -25 15 -17 5 -20 3 -17 -11 5 -21 -12
-51 -23 -40 -4 5 -1 12 6 16 9 6 10 11 2 15 -6 4 -11 2 -11 -3 0 -6 -7 -11
-16 -11 -14 0 -14 -3 -4 -15 7 -9 10 -18 6 -22 -3 -3 -6 -1 -6 5 0 7 -9 12
-20 12 -15 0 -20 -7 -20 -25 0 -25 -14 -33 -25 -15 -7 11 -35 -12 -35 -29 0
-6 -11 -6 -30 -1 -27 8 -31 6 -36 -16 -3 -13 -10 -24 -15 -24 -4 0 -2 19 7 42
8 22 12 43 9 46 -3 3 -5 0 -5 -7 0 -7 -5 -9 -12 -5 -7 4 -8 3 -4 -4 4 -7 2
-12 -3 -12 -6 0 -11 5 -11 11 0 7 -9 0 -20 -14 -22 -27 -26 -42 -10 -32 15 9
12 -4 -5 -21 -8 -9 -15 -11 -15 -5 0 5 -12 8 -26 7 -18 -2 -31 -13 -41 -33
-11 -23 -21 -30 -39 -29 -24 1 -33 20 -14 31 15 10 12 35 -5 35 -23 0 -18 18
7 26 20 6 20 7 3 16 -19 11 -35 -4 -35 -34 0 -20 -22 -36 -28 -20 -2 7 -10 12
-17 12 -7 0 -15 6 -18 13 -2 6 -8 9 -12 5 -4 -4 2 -17 14 -29 14 -16 18 -26
11 -35 -7 -8 -6 -13 5 -18 8 -3 15 -13 14 -23 0 -11 -3 -13 -6 -5 -2 6 -10 12
-17 12 -7 0 -21 9 -31 20 -14 15 -21 17 -32 9 -9 -9 -17 -8 -27 0 -8 6 -18 11
-22 10 -29 -6 -76 17 -90 42 -8 16 -18 28 -22 27 -4 -1 -20 6 -37 15 -26 16
-27 18 -6 13 18 -4 21 -2 12 7 -9 9 -20 7 -46 -7 -19 -10 -32 -23 -29 -27 10
-17 -32 5 -53 28 -20 21 -21 25 -6 30 10 4 21 -1 29 -12 10 -13 17 -16 24 -9
7 7 4 19 -10 37 -12 15 -19 27 -16 27 3 0 -8 14 -25 31 -19 19 -29 38 -26 49
3 12 0 17 -7 14 -7 -3 -21 7 -32 21 -17 24 -127 85 -153 85 -14 0 -29 31 -24
50 3 11 1 10 -7 -2 -8 -13 -17 -15 -39 -8 -15 4 -33 5 -39 1 -13 -8 -5 -51 9
-51 5 0 9 -6 9 -14 0 -7 7 -20 17 -27 9 -8 27 -36 39 -64 23 -49 23 -50 4 -60
-19 -10 -19 -12 -3 -28 13 -12 14 -20 6 -28 -6 -6 -9 -17 -7 -23 3 -7 -4 -21
-16 -31 -26 -23 -25 -43 1 -66 11 -10 18 -22 15 -28 -4 -5 3 -12 14 -16 11 -4
18 -11 15 -16 -4 -5 3 -9 14 -9 12 0 21 -4 21 -9 0 -5 13 -23 30 -41 16 -18
27 -36 24 -41 -3 -5 6 -14 20 -20 24 -11 44 -39 28 -39 -8 0 -10 -11 -12 -75
-1 -19 -6 -35 -12 -35 -5 0 -6 -4 -3 -10 3 -6 -1 -7 -9 -4 -9 3 -14 10 -11 15
3 4 -5 13 -17 20 -22 12 -22 11 -8 -7 8 -11 3 -9 -13 6 -20 17 -26 31 -23 46
4 13 0 27 -9 34 -16 13 -35 6 -35 -13 0 -7 4 -6 10 3 11 18 23 8 14 -13 -5
-14 -9 -14 -34 5 -25 18 -28 26 -25 62 3 27 1 36 -5 26 -5 -8 -12 -11 -16 -7
-4 4 -2 13 4 19 7 7 12 19 12 28 0 8 -7 2 -15 -14 -14 -26 -14 -31 0 -46 17
-19 20 -34 5 -25 -23 14 -84 152 -86 195 -2 31 0 40 6 30 8 -12 10 -11 10 5 0
11 -5 27 -10 35 -8 13 -10 13 -10 -2 0 -11 -5 -15 -15 -12 -13 5 -13 8 1 21
16 17 14 35 -4 39 -7 1 -8 0 -2 -3 15 -7 12 -23 -4 -23 -7 0 -16 11 -18 25 -5
22 -2 25 21 23 15 -1 33 2 40 7 11 6 13 4 8 -8 -3 -9 -1 -19 5 -23 6 -4 8 -3
4 4 -3 6 4 14 16 18 l23 8 -25 6 c-23 5 -25 12 -30 68 -3 37 -1 64 5 66 6 2 4
15 -6 32 -12 23 -22 29 -50 30 -54 1 -59 3 -59 19 0 8 -5 15 -10 15 -13 0 -41
61 -34 72 3 5 32 8 65 8 51 0 59 2 59 19 0 20 -40 48 -166 117 -38 20 -76 42
-84 49 -8 7 -86 47 -172 90 -87 43 -158 82 -158 87 0 5 4 6 10 3 5 -3 3 9 -5
28 -11 26 -11 37 -2 46 9 9 9 16 -1 31 -6 11 -12 29 -12 40 0 22 -15 27 -23 8
-3 -8 -6 -4 -7 7 -2 11 -4 30 -5 43 -1 13 -7 28 -14 35 -19 19 -12 37 15 37
29 0 54 -21 54 -45 0 -8 11 -20 25 -25 14 -5 25 -15 25 -22 0 -7 20 -25 44
-40 l45 -27 -25 47 c-16 29 -23 55 -19 69 3 14 -2 34 -12 49 -15 24 -17 25
-24 8 -4 -11 -6 1 -3 26 6 55 -7 80 -30 60 -9 -7 -20 -10 -24 -6 -4 4 1 12 11
17 21 12 23 31 2 23 -8 -4 -15 -1 -15 5 0 6 4 11 9 11 14 0 0 42 -21 64 -14
15 -21 17 -30 8 -16 -16 -29 -15 -25 0 3 16 -39 23 -48 9z m-53 -78 c20 -18
25 -57 6 -51 -7 3 -15 15 -18 29 -4 15 -12 23 -23 21 -9 -2 -17 2 -17 8 0 16
31 12 52 -7z m145 -25 c-3 -7 -5 -2 -5 12 0 14 2 19 5 13 2 -7 2 -19 0 -25z
m-217 12 c-8 -5 -19 -10 -25 -10 -5 0 -3 5 5 10 8 5 20 10 25 10 6 0 3 -5 -5
-10z m20 -20 c0 -5 -5 -10 -11 -10 -5 0 -7 5 -4 10 3 6 8 10 11 10 2 0 4 -4 4
-10z m-31 -52 c1 -5 -3 -8 -9 -8 -5 0 -10 12 -9 28 0 24 1 25 9 7 5 -11 9 -23
9 -27z m241 18 c0 -3 -4 -8 -10 -11 -5 -3 -10 -1 -10 4 0 6 5 11 10 11 6 0 10
-2 10 -4z m-350 -26 c-24 -15 -37 -11 -16 5 11 8 22 12 25 9 3 -3 -1 -9 -9
-14z m56 -5 c14 -13 14 -17 1 -30 -17 -16 -28 -10 -20 12 3 8 0 19 -8 24 -11
7 -11 9 -1 9 7 0 20 -7 28 -15z m339 -5 c19 -8 19 -9 -2 -9 -12 -1 -25 4 -28
9 -7 12 2 12 30 0z m-118 -6 c-3 -3 -12 -4 -19 -1 -8 3 -5 6 6 6 11 1 17 -2
13 -5z m-387 -44 c0 -5 6 -10 14 -10 8 0 17 -4 20 -9 9 -14 -32 -1 -45 15 -8
10 -8 14 0 14 6 0 11 -4 11 -10z m380 0 c0 -5 -4 -10 -10 -10 -5 0 -10 5 -10
10 0 6 5 10 10 10 6 0 10 -4 10 -10z m-415 -20 c-3 -5 -1 -10 6 -10 7 0 10 -3
6 -6 -9 -9 -28 6 -22 17 4 5 8 9 11 9 3 0 2 -4 -1 -10z m-65 -35 c0 -8 -2 -15
-4 -15 -2 0 -12 -3 -21 -6 -15 -6 -15 -4 -4 15 16 25 29 27 29 6z m30 -25 c0
-5 -4 -10 -10 -10 -5 0 -10 5 -10 10 0 6 5 10 10 10 6 0 10 -4 10 -10z m80
-15 c10 -12 10 -15 -4 -15 -9 0 -16 7 -16 15 0 8 2 15 4 15 2 0 9 -7 16 -15z
m-193 -11 c-3 -3 -12 -4 -19 -1 -8 3 -5 6 6 6 11 1 17 -2 13 -5z m230 -36 c-3
-8 -6 -5 -6 6 -1 11 2 17 5 13 3 -3 4 -12 1 -19z m283 2 c0 -5 -4 -10 -10 -10
-5 0 -10 5 -10 10 0 6 5 10 10 10 6 0 10 -4 10 -10z m90 -4 c0 -2 -7 -7 -16
-10 -8 -3 -12 -2 -9 4 6 10 25 14 25 6z m-760 -29 c11 -5 9 -6 -4 -4 -11 1
-21 9 -23 17 -3 10 -2 11 4 4 4 -6 15 -14 23 -17z m302 -22 c2 -34 0 -42 -9
-32 -6 7 -12 23 -13 37 -3 34 -1 40 9 40 5 0 11 -20 13 -45z m-452 -69 c0 -2
-7 -7 -16 -10 -8 -3 -12 -2 -9 4 6 10 25 14 25 6z m552 -16 c55 -24 83 -48 82
-69 0 -17 4 -20 20 -16 26 7 -41 -30 -71 -39 -20 -6 -23 -4 -23 18 0 29 -13
40 -40 31 -11 -4 -17 -12 -13 -21 9 -25 -12 -15 -35 15 -14 19 -18 32 -11 36
7 5 7 11 0 19 -25 29 41 48 91 26z m343 0 c13 -6 15 -9 5 -9 -8 0 -22 4 -30 9
-18 12 -2 12 25 0z m-120 -50 c3 -6 -1 -7 -9 -4 -18 7 -21 14 -7 14 6 0 13 -4
16 -10z m-355 -134 c0 -2 -7 -7 -16 -10 -8 -3 -12 -2 -9 4 6 10 25 14 25 6z
m4478 -166 c17 -35 18 -40 3 -40 -15 0 -51 50 -51 71 0 24 30 5 48 -31z
m-4408 -22 c0 -16 -3 -16 -20 -6 -11 7 -20 15 -20 18 0 3 9 6 20 6 13 0 20 -7
20 -18z m904 -40 c15 -34 15 -36 -4 -31 -15 4 -20 14 -20 41 0 41 4 39 24 -10z
m3031 32 c3 -5 -1 -10 -9 -10 -8 0 -18 5 -21 10 -3 6 1 10 9 10 8 0 18 -4 21
-10z m-7605 -16 c0 -8 -4 -12 -10 -9 -5 3 -10 10 -10 16 0 5 5 9 10 9 6 0 10
-7 10 -16z m30 0 c0 -8 -4 -12 -10 -9 -5 3 -10 10 -10 16 0 5 5 9 10 9 6 0 10
-7 10 -16z m30 0 c0 -8 -4 -12 -10 -9 -5 3 -10 10 -10 16 0 5 5 9 10 9 6 0 10
-7 10 -16z m30 0 c0 -8 -4 -12 -10 -9 -5 3 -10 10 -10 16 0 5 5 9 10 9 6 0 10
-7 10 -16z m30 1 c0 -8 -4 -15 -10 -15 -5 0 -10 7 -10 15 0 8 5 15 10 15 6 0
10 -7 10 -15z m7530 -14 c0 -4 30 -39 68 -77 37 -38 67 -74 67 -80 0 -26 -70
-68 -105 -62 -16 2 -34 23 -61 71 -22 38 -39 73 -39 78 0 5 14 7 31 5 35 -4
26 11 -10 16 -27 3 -47 28 -39 50 4 10 18 13 47 10 22 -2 41 -7 41 -11z
m-3993 -13 c-3 -8 -6 -5 -6 6 -1 11 2 17 5 13 3 -3 4 -12 1 -19z m1177 -34 c3
-8 2 -12 -4 -9 -6 3 -10 10 -10 16 0 14 7 11 14 -7z m-244 -43 c0 -5 -9 -7
-20 -4 -11 3 -20 7 -20 9 0 2 9 4 20 4 11 0 20 -4 20 -9z m346 -1 c8 0 14 -4
14 -10 0 -15 -22 -12 -45 7 -18 14 -18 15 -2 9 10 -3 25 -6 33 -6z m2629 -11
c4 -6 5 -12 2 -15 -7 -7 -37 7 -37 17 0 13 27 11 35 -2z m-2978 -71 c-2 -13
-4 -5 -4 17 -1 22 1 32 4 23 2 -10 2 -28 0 -40z m91 7 c0 -19 -4 -35 -9 -35
-5 0 -9 18 -9 41 0 22 4 38 9 35 5 -3 9 -22 9 -41z m322 35 c8 -5 11 -10 5
-10 -5 0 -17 5 -25 10 -8 5 -10 10 -5 10 6 0 17 -5 25 -10z m2453 -17 c-4 -10
-2 -14 7 -11 17 5 76 -50 64 -61 -5 -5 -19 -12 -32 -16 -19 -6 -25 0 -42 40
-24 55 -25 76 -6 69 9 -3 12 -12 9 -21z m2561 -65 c8 -9 20 -27 27 -40 6 -13
18 -27 25 -31 16 -9 19 -53 4 -62 -6 -4 -10 6 -10 22 l-1 28 -14 -25 c-8 -14
-14 -34 -15 -45 0 -25 -40 -54 -40 -30 0 8 -7 15 -16 15 -8 0 -12 5 -9 10 3 6
3 16 -1 22 -5 7 -9 57 -9 112 l-2 100 23 -30 c13 -16 30 -37 38 -46z m-2404
22 c0 -5 -4 -10 -10 -10 -5 0 -10 5 -10 10 0 6 5 10 10 10 6 0 10 -4 10 -10z
m1060 -25 c0 -5 -5 -3 -10 5 -5 8 -10 20 -10 25 0 6 5 3 10 -5 5 -8 10 -19 10
-25z m-9275 6 c3 -5 1 -12 -4 -15 -5 -3 -7 -15 -4 -26 5 -18 3 -19 -18 -7 -54
28 -55 30 -24 43 37 16 42 16 50 5z m92 -37 c9 -9 7 -16 -11 -31 -32 -28 -56
-9 -56 42 l0 37 28 -18 c15 -10 32 -23 39 -30z m10787 10 c3 -8 2 -12 -4 -9
-6 3 -10 10 -10 16 0 14 7 11 14 -7z m-5336 -22 c2 -7 -5 -12 -16 -12 -12 0
-28 -7 -37 -16 -18 -19 -28 -14 -20 8 7 17 44 38 59 34 6 -1 12 -8 14 -14z
m1622 8 c0 -5 -4 -10 -10 -10 -5 0 -10 5 -10 10 0 6 5 10 10 10 6 0 10 -4 10
-10z m-480 -10 c0 -5 -2 -10 -4 -10 -3 0 -8 5 -11 10 -3 6 -1 10 4 10 6 0 11
-4 11 -10z m-6896 -21 c-3 -5 -10 -7 -15 -3 -5 3 -7 10 -3 15 3 5 10 7 15 3 5
-3 7 -10 3 -15z m5471 -20 c4 -17 4 -33 1 -36 -3 -4 -2 -11 3 -17 4 -6 16 -36
26 -66 26 -81 100 -203 154 -254 31 -30 39 -50 22 -60 -9 -6 -47 21 -84 62
-11 12 -27 22 -34 22 -7 0 -13 7 -13 15 0 9 -9 15 -25 15 l-25 0 21 -21 c11
-11 29 -21 40 -22 10 -1 19 -5 19 -10 0 -12 63 -72 83 -80 13 -5 14 -12 5 -47
-6 -23 -14 -37 -17 -32 -3 6 -17 12 -31 13 -21 3 -26 10 -28 42 -2 20 -7 35
-13 32 -5 -4 -9 9 -9 27 l-1 33 -14 -25 c-8 -14 -14 -40 -15 -58 0 -18 -4 -31
-9 -28 -5 3 -8 20 -7 37 3 37 -9 46 -26 19 -16 -26 -36 -25 -70 3 -26 21 -28
29 -32 115 -3 55 -1 90 5 87 5 -4 9 -11 9 -16 0 -6 12 -21 28 -34 31 -28 92
-35 92 -10 0 15 -38 55 -52 55 -4 0 -8 4 -8 10 0 5 -20 29 -44 52 -33 33 -45
53 -50 86 l-6 42 40 0 c41 0 45 6 43 68 -1 25 16 11 22 -19z m360 11 c17 14
35 5 35 -16 0 -8 -4 -13 -9 -9 -5 3 -13 1 -16 -5 -7 -11 -45 30 -45 47 0 4 5
0 11 -10 8 -14 14 -16 24 -7z m-784 -46 c-32 -22 -116 -67 -109 -59 4 4 3 14
-3 22 -8 9 -8 13 -1 13 6 0 14 -5 17 -10 7 -12 25 -4 25 11 0 5 -10 10 -22 10
-19 1 -17 3 7 9 28 7 29 8 5 9 -15 0 -32 -5 -38 -11 -10 -10 -15 -10 -20 -1
-4 6 -21 13 -37 16 -17 3 20 4 81 3 84 -1 107 -4 95 -12z m863 -3 c15 -17 15
-19 1 -25 -23 -9 -25 -8 -19 9 5 11 2 13 -10 9 -12 -5 -15 -2 -10 10 8 21 17
20 38 -3z m-214 -11 c0 -5 -4 -10 -10 -10 -5 0 -10 5 -10 10 0 6 5 10 10 10 6
0 10 -4 10 -10z m-562 -28 c2 -8 -3 -10 -15 -6 -16 5 -16 4 1 -10 20 -16 20
-16 0 -30 -17 -13 -21 -12 -40 5 -18 17 -22 17 -40 4 -18 -13 -17 -14 10 -12
39 3 42 -25 6 -47 -28 -16 -35 -8 -17 21 4 7 -1 14 -14 18 -21 7 -21 7 3 23
37 26 82 50 92 48 6 -1 12 -8 14 -14z m162 8 c0 -5 -2 -10 -4 -10 -3 0 -8 5
-11 10 -3 6 -1 10 4 10 6 0 11 -4 11 -10z m234 -40 l6 -35 -14 35 c-17 42 -20
58 -7 45 5 -6 12 -26 15 -45z m-308 -137 c-17 -48 -22 -34 -24 57 l-1 75 19
-48 c16 -42 17 -53 6 -84z m1135 78 c6 10 9 8 9 -9 0 -28 -24 -25 -27 4 -2 11
0 14 3 5 5 -11 8 -11 15 0z m-1230 -19 c-11 -4 -11 -6 0 -13 11 -6 11 -11 1
-21 -9 -9 -12 -9 -12 1 0 8 -7 11 -20 8 -11 -3 -20 -2 -20 2 0 10 54 41 60 34
3 -3 -1 -8 -9 -11z m190 -27 c6 16 8 13 8 -15 1 -19 3 -53 6 -75 2 -22 2 -31
-1 -20 -4 11 -10 25 -14 30 -15 20 -30 78 -23 89 5 7 9 4 12 -9 l4 -20 8 20z
m-38 -92 c2 -10 8 -27 13 -38 7 -17 6 -18 -8 -5 -9 8 -14 18 -12 22 2 4 0 9
-6 13 -12 8 -13 25 -1 25 5 0 11 -8 14 -17z m467 -143 c0 -5 -2 -10 -4 -10 -3
0 -8 5 -11 10 -3 6 -1 10 4 10 6 0 11 -4 11 -10z"/>
<path d="M10250 6101 c0 -6 4 -13 10 -16 6 -3 7 1 4 9 -7 18 -14 21 -14 7z"/>
<path d="M10280 6035 c7 -9 15 -13 17 -11 7 7 -7 26 -19 26 -6 0 -6 -6 2 -15z"/>
<path d="M10324 6003 c2 -9 8 -19 15 -21 10 -3 10 0 2 17 -14 25 -20 27 -17 4z"/>
<path d="M10285 5919 c-4 -6 -5 -12 -2 -15 2 -3 7 2 10 11 7 17 1 20 -8 4z"/>
<path d="M10315 5910 c3 -5 8 -10 11 -10 2 0 4 5 4 10 0 6 -5 10 -11 10 -5 0
-7 -4 -4 -10z"/>
<path d="M9882 6195 c0 -16 2 -22 5 -12 2 9 2 23 0 30 -3 6 -5 -1 -5 -18z"/>
<path d="M10386 7128 c-19 -21 -42 -38 -51 -38 -8 0 -15 -5 -15 -11 0 -7 10
-9 28 -4 15 3 45 9 67 11 61 8 73 13 55 25 -11 7 -7 8 13 3 27 -6 38 8 16 21
-6 4 -8 12 -6 19 3 7 -8 11 -33 11 -30 0 -44 -7 -74 -37z"/>
<path d="M3522 6897 c-2 -64 -3 -67 -22 -57 -17 9 -20 8 -20 -8 0 -10 10 -24
23 -31 20 -10 20 -11 2 -8 -20 4 -45 -13 -45 -31 0 -5 11 -14 25 -20 36 -16
32 -36 -5 -28 -27 5 -30 3 -30 -19 0 -21 5 -25 29 -25 17 0 33 -5 37 -11 5 -9
-4 -10 -32 -4 -43 8 -46 12 26 -49 23 -18 32 -14 43 19 2 5 17 10 33 10 21 1
30 7 32 23 3 20 1 21 -28 11 -17 -6 -33 -9 -36 -6 -3 3 4 8 15 12 12 3 21 13
21 21 0 8 4 13 9 10 5 -3 14 1 20 8 10 12 8 15 -11 18 -13 2 -31 -1 -40 -6
-20 -12 -39 1 -19 13 7 5 12 11 12 15 -2 17 0 20 8 8 6 -10 14 -4 33 20 20 27
23 36 13 45 -10 9 -14 9 -19 -2 -6 -17 -54 -50 -62 -42 -3 2 11 21 31 40 26
26 32 36 21 40 -8 3 -22 -4 -33 -15 -18 -20 -18 -19 -24 48 l-5 69 -2 -68z"/>
<path d="M12525 6890 c-3 -6 1 -7 9 -4 18 7 21 14 7 14 -6 0 -13 -4 -16 -10z"/>
<path d="M13846 6867 c3 -10 9 -15 12 -12 3 3 0 11 -7 18 -10 9 -11 8 -5 -6z"/>
<path d="M3820 6750 c0 -5 5 -10 11 -10 5 0 7 5 4 10 -3 6 -8 10 -11 10 -2 0
-4 -4 -4 -10z"/>
<path d="M10750 6691 c0 -6 4 -13 10 -16 6 -3 7 1 4 9 -7 18 -14 21 -14 7z"/>
<path d="M11235 6690 c-3 -5 -1 -10 4 -10 6 0 11 5 11 10 0 6 -2 10 -4 10 -3
0 -8 -4 -11 -10z"/>
<path d="M13310 6696 c0 -2 7 -9 15 -16 13 -11 14 -10 9 4 -5 14 -24 23 -24
12z"/>
<path d="M3878 6683 c-10 -2 -18 -9 -18 -14 0 -6 8 -5 20 1 11 6 20 13 20 15
0 3 -1 4 -2 4 -2 -1 -11 -3 -20 -6z"/>
<path d="M2428 6583 c7 -3 16 -2 19 1 4 3 -2 6 -13 5 -11 0 -14 -3 -6 -6z"/>
<path d="M11075 6580 c3 -5 8 -10 11 -10 2 0 4 5 4 10 0 6 -5 10 -11 10 -5 0
-7 -4 -4 -10z"/>
<path d="M10801 6544 c0 -11 3 -14 6 -6 3 7 2 16 -1 19 -3 4 -6 -2 -5 -13z"/>
<path d="M10820 6550 c0 -5 5 -10 10 -10 6 0 10 5 10 10 0 6 -4 10 -10 10 -5
0 -10 -4 -10 -10z"/>
<path d="M11781 6544 c0 -11 3 -14 6 -6 3 7 2 16 -1 19 -3 4 -6 -2 -5 -13z"/>
<path d="M2710 6510 c8 -5 20 -10 25 -10 6 0 3 5 -5 10 -8 5 -19 10 -25 10 -5
0 -3 -5 5 -10z"/>
<path d="M10240 6490 c0 -5 5 -10 11 -10 5 0 7 5 4 10 -3 6 -8 10 -11 10 -2 0
-4 -4 -4 -10z"/>
<path d="M10275 6470 c-3 -5 -2 -10 4 -10 5 0 13 5 16 10 3 6 2 10 -4 10 -5 0
-13 -4 -16 -10z"/>
<path d="M11345 6470 c3 -5 8 -10 11 -10 2 0 4 5 4 10 0 6 -5 10 -11 10 -5 0
-7 -4 -4 -10z"/>
<path d="M11345 6431 c-3 -5 -1 -12 5 -16 5 -3 10 1 10 9 0 18 -6 21 -15 7z"/>
<path d="M10267 6380 c-6 -16 -15 -30 -19 -30 -4 0 -8 -7 -8 -16 0 -13 4 -11
19 7 30 40 43 69 30 69 -6 0 -16 -13 -22 -30z"/>
<path d="M11165 6380 c3 -5 8 -10 11 -10 2 0 4 5 4 10 0 6 -5 10 -11 10 -5 0
-7 -4 -4 -10z"/>
<path d="M11090 6310 c0 -5 5 -10 10 -10 6 0 10 5 10 10 0 6 -4 10 -10 10 -5
0 -10 -4 -10 -10z"/>
<path d="M10265 6190 c3 -5 8 -10 11 -10 2 0 4 5 4 10 0 6 -5 10 -11 10 -5 0
-7 -4 -4 -10z"/>
</g>
</svg>
